<svg width="1363" height="635" viewBox="0 0 1363 635" fill="none" xmlns="http://www.w3.org/2000/svg">
<path d="M-81.7735 531.675C-110.077 473.15 -116.224 389.565 -80.1311 314.643C-44.0387 239.72 35.4193 173.185 111.336 167.059C187.252 160.932 260.058 214.897 333.241 244.911C406.424 274.925 479.721 280.63 522.912 317.775C566.367 355.278 579.716 424.22 583.652 501.167C587.851 578.472 582.637 663.783 534.187 719.138C486.169 774.176 395.179 799.617 312.492 820.07C229.804 840.522 155.251 856.661 112.201 828.772C69.4149 801.24 57.4382 729.64 26.9139 677.148C-3.87287 624.298 -53.9019 590.516 -81.7735 531.675Z" fill="url(#paint0_linear_27_414)"/>
<defs>
<linearGradient id="paint0_linear_27_414" x1="723.133" y1="585.686" x2="293.576" y2="9.76703e-05" gradientUnits="userSpaceOnUse">
<stop stop-color="#73E0A9"/>
<stop offset="1" stop-color="#5B68DF"/>
</linearGradient>
</defs>
</svg>
