<svg width="1440" height="898" viewBox="0 0 1440 898" fill="none" xmlns="http://www.w3.org/2000/svg">
<rect width="1440" height="795" fill="white"/>
<path opacity="0.1" d="M-149.121 675.569C-163.799 645.576 -166.927 602.41 -148.084 563.316C-129.24 524.223 -87.8382 489.049 -48.3302 485.149C-8.82218 481.25 29.0171 508.456 67.0724 523.272C105.128 538.089 143.263 540.333 165.706 559.126C188.286 578.102 195.175 613.626 197.158 653.381C199.278 693.319 196.493 737.487 171.236 766.581C146.203 795.506 98.8354 809.539 55.7921 820.913C12.7487 832.287 -26.0587 841.351 -48.4358 827.343C-70.6766 813.517 -76.8485 776.605 -92.6876 749.753C-108.663 722.719 -134.667 705.731 -149.121 675.569Z" fill="url(#paint0_linear_12_222)"/>
<path opacity="0.15" d="M670.956 372.848C642.995 362.93 614.192 339.458 601.882 307.121C589.573 274.785 594.035 233.195 616.722 210.737C639.408 188.279 680.357 184.74 713.747 173.895C747.137 163.05 772.767 144.862 798.706 144.306C824.844 143.786 851.29 160.898 877.246 182.974C903.403 205.087 929.071 232.163 931.092 261.97C933.151 291.564 911.765 323.925 891.474 352.53C871.184 381.136 852.151 406.236 829.228 409.537C806.504 412.875 779.651 394.59 752.905 387.09C725.958 379.554 698.878 382.978 670.956 372.848Z" fill="url(#paint1_linear_12_222)"/>
<path opacity="0.1" d="M947.895 739.646C911.93 727.148 874.76 697.912 858.671 657.886C842.582 617.86 847.926 566.566 876.827 539.054C905.728 511.542 958.235 507.55 1000.98 494.469C1043.72 481.389 1076.43 459.175 1109.71 458.726C1143.24 458.324 1177.33 479.687 1210.83 507.174C1244.59 534.707 1277.77 568.362 1280.64 605.171C1283.55 641.718 1256.41 681.466 1230.64 716.588C1204.87 751.71 1180.68 782.516 1151.3 786.381C1122.17 790.293 1087.55 767.478 1053.17 757.976C1018.53 748.427 983.813 752.405 947.895 739.646Z" fill="url(#paint2_linear_12_222)"/>
<path d="M287.082 -157.462C337.406 -162.376 399.026 -146.551 441.814 -104.643C484.602 -62.7344 508.418 6.0742 490.089 58.1254C471.761 110.177 411.384 145.834 368.025 187.45C324.665 229.066 298.658 276.552 259.171 296.483C219.349 316.503 166.048 308.968 109.837 293.252C53.291 277.626 -6.16393 253.82 -31.2606 208.34C-56.2599 163.223 -47.2355 96.5232 -37.1272 36.5454C-27.0189 -23.4324 -16.2586 -76.9619 16.5664 -99.0033C49.0569 -120.955 103.849 -111.872 150.523 -119.703C197.532 -127.624 236.659 -152.912 287.082 -157.462Z" fill="url(#paint3_linear_12_222)"/>
<path d="M1113.47 484.021C1091.63 438.183 1087.74 372.305 1117.39 312.754C1147.04 253.204 1211.13 199.751 1271.68 194.005C1332.23 188.259 1389.58 229.965 1447.52 252.769C1505.46 275.572 1563.78 279.193 1597.74 307.983C1631.91 337.052 1641.71 391.29 1643.92 451.957C1646.34 512.904 1641.16 580.28 1601.9 624.54C1562.99 668.544 1490.2 689.711 1424.08 706.842C1357.97 723.973 1298.38 737.602 1264.43 716.114C1230.67 694.904 1221.99 638.552 1198.31 597.501C1174.42 556.17 1134.97 530.115 1113.47 484.021Z" fill="url(#paint4_linear_12_222)"/>
<defs>
<linearGradient id="paint0_linear_12_222" x1="269.665" y1="695.746" x2="46.6387" y2="397" gradientUnits="userSpaceOnUse">
<stop stop-color="#73E0A9"/>
<stop offset="1" stop-color="#5B68DF"/>
</linearGradient>
<linearGradient id="paint1_linear_12_222" x1="949.645" y1="170.52" x2="622.319" y2="111" gradientUnits="userSpaceOnUse">
<stop stop-color="#73E0A9"/>
<stop offset="1" stop-color="#5B68DF"/>
</linearGradient>
<linearGradient id="paint2_linear_12_222" x1="1303.61" y1="492.465" x2="883.095" y2="416" gradientUnits="userSpaceOnUse">
<stop stop-color="#73E0A9"/>
<stop offset="1" stop-color="#5B68DF"/>
</linearGradient>
<linearGradient id="paint3_linear_12_222" x1="7.66146" y1="366.06" x2="555.054" y2="219.387" gradientUnits="userSpaceOnUse">
<stop stop-color="#73E0A9"/>
<stop offset="1" stop-color="#5B68DF"/>
</linearGradient>
<linearGradient id="paint4_linear_12_222" x1="1754.02" y1="516.971" x2="1418.86" y2="60.0001" gradientUnits="userSpaceOnUse">
<stop stop-color="#73E0A9"/>
<stop offset="1" stop-color="#5B68DF"/>
</linearGradient>
</defs>
</svg>
